<svg xmlns="http://www.w3.org/2000/svg" xmlns:xlink="http://www.w3.org/1999/xlink" width="800" zoomAndPan="magnify" viewBox="0 0 600 599.999999" height="800" preserveAspectRatio="xMidYMid meet" version="1.0"><defs><clipPath id="0d8cb23a5e"><path d="M 60 114.941406 L 474.925781 114.941406 L 474.925781 529.863281 L 60 529.863281 Z M 60 114.941406 " clip-rule="nonzero"/></clipPath><clipPath id="9781f15617"><path d="M 125.074219 70.136719 L 540 70.136719 L 540 485.058594 L 125.074219 485.058594 Z M 125.074219 70.136719 " clip-rule="nonzero"/></clipPath></defs><rect x="-60" width="720" fill="#ffffff" y="-60" height="719.999999" fill-opacity="1"/><rect x="-60" width="720" fill="#ffffff" y="-60" height="719.999999" fill-opacity="1"/><g clip-path="url(#0d8cb23a5e)"><path fill="#2a9d8f" d="M 474.917969 322.398438 C 474.917969 325.792969 474.835938 329.1875 474.667969 332.578125 C 474.5 335.96875 474.25 339.355469 473.917969 342.734375 C 473.585938 346.113281 473.171875 349.480469 472.671875 352.839844 C 472.175781 356.199219 471.59375 359.542969 470.929688 362.871094 C 470.269531 366.203125 469.523438 369.511719 468.699219 372.808594 C 467.875 376.101562 466.96875 379.371094 465.984375 382.621094 C 465 385.871094 463.933594 389.09375 462.789062 392.289062 C 461.648438 395.484375 460.425781 398.652344 459.125 401.789062 C 457.828125 404.925781 456.449219 408.027344 455 411.097656 C 453.546875 414.167969 452.023438 417.199219 450.421875 420.195312 C 448.820312 423.1875 447.148438 426.140625 445.402344 429.054688 C 443.65625 431.964844 441.839844 434.832031 439.953125 437.65625 C 438.066406 440.480469 436.113281 443.253906 434.089844 445.980469 C 432.070312 448.707031 429.980469 451.382812 427.828125 454.007812 C 425.671875 456.632812 423.457031 459.203125 421.175781 461.71875 C 418.894531 464.234375 416.554688 466.691406 414.15625 469.09375 C 411.753906 471.496094 409.296875 473.835938 406.78125 476.113281 C 404.265625 478.394531 401.695312 480.613281 399.070312 482.765625 C 396.445312 484.921875 393.769531 487.007812 391.042969 489.03125 C 388.316406 491.054688 385.539062 493.007812 382.714844 494.894531 C 379.894531 496.78125 377.027344 498.597656 374.113281 500.339844 C 371.203125 502.085938 368.25 503.761719 365.253906 505.359375 C 362.261719 506.960938 359.226562 508.488281 356.160156 509.9375 C 353.089844 511.390625 349.988281 512.765625 346.851562 514.066406 C 343.714844 515.363281 340.546875 516.585938 337.347656 517.730469 C 334.152344 518.875 330.929688 519.9375 327.679688 520.925781 C 324.433594 521.910156 321.160156 522.816406 317.867188 523.640625 C 314.574219 524.464844 311.261719 525.207031 307.933594 525.871094 C 304.601562 526.535156 301.257812 527.113281 297.898438 527.613281 C 294.539062 528.109375 291.171875 528.523438 287.792969 528.859375 C 284.414062 529.191406 281.03125 529.441406 277.636719 529.605469 C 274.246094 529.773438 270.855469 529.855469 267.457031 529.855469 C 264.0625 529.855469 260.671875 529.773438 257.28125 529.605469 C 253.886719 529.441406 250.503906 529.191406 247.125 528.859375 C 243.746094 528.523438 240.375 528.109375 237.019531 527.613281 C 233.660156 527.113281 230.316406 526.535156 226.984375 525.871094 C 223.65625 525.207031 220.34375 524.464844 217.050781 523.640625 C 213.757812 522.816406 210.484375 521.910156 207.238281 520.925781 C 203.988281 519.9375 200.765625 518.875 197.566406 517.730469 C 194.371094 516.585938 191.203125 515.363281 188.066406 514.066406 C 184.929688 512.765625 181.828125 511.390625 178.757812 509.9375 C 175.691406 508.488281 172.65625 506.960938 169.664062 505.359375 C 166.667969 503.761719 163.714844 502.085938 160.804688 500.339844 C 157.890625 498.597656 155.023438 496.78125 152.199219 494.894531 C 149.378906 493.007812 146.601562 491.054688 143.875 489.03125 C 141.148438 487.007812 138.472656 484.921875 135.847656 482.765625 C 133.222656 480.613281 130.652344 478.394531 128.136719 476.113281 C 125.621094 473.835938 123.164062 471.496094 120.761719 469.09375 C 118.363281 466.691406 116.023438 464.234375 113.742188 461.71875 C 111.460938 459.203125 109.246094 456.632812 107.089844 454.007812 C 104.9375 451.382812 102.847656 448.707031 100.828125 445.980469 C 98.804688 443.253906 96.847656 440.480469 94.964844 437.65625 C 93.078125 434.832031 91.261719 431.964844 89.515625 429.054688 C 87.769531 426.140625 86.097656 423.1875 84.496094 420.195312 C 82.894531 417.199219 81.371094 414.167969 79.917969 411.097656 C 78.464844 408.027344 77.089844 404.925781 75.792969 401.789062 C 74.492188 398.652344 73.269531 395.484375 72.128906 392.289062 C 70.984375 389.09375 69.917969 385.871094 68.933594 382.621094 C 67.949219 379.371094 67.042969 376.101562 66.21875 372.808594 C 65.390625 369.511719 64.648438 366.203125 63.984375 362.871094 C 63.324219 359.542969 62.742188 356.199219 62.246094 352.839844 C 61.746094 349.480469 61.332031 346.113281 61 342.734375 C 60.667969 339.355469 60.417969 335.96875 60.25 332.578125 C 60.082031 329.1875 60 325.792969 60 322.398438 C 60 319.003906 60.082031 315.609375 60.25 312.21875 C 60.417969 308.828125 60.667969 305.441406 61 302.0625 C 61.332031 298.683594 61.746094 295.316406 62.246094 291.957031 C 62.742188 288.597656 63.324219 285.253906 63.984375 281.925781 C 64.648438 278.59375 65.390625 275.285156 66.21875 271.988281 C 67.042969 268.695312 67.949219 265.425781 68.933594 262.175781 C 69.917969 258.925781 70.984375 255.703125 72.128906 252.507812 C 73.269531 249.3125 74.492188 246.144531 75.792969 243.007812 C 77.089844 239.871094 78.464844 236.765625 79.917969 233.699219 C 81.371094 230.628906 82.894531 227.597656 84.496094 224.601562 C 86.097656 221.609375 87.769531 218.65625 89.515625 215.742188 C 91.261719 212.832031 93.078125 209.964844 94.964844 207.140625 C 96.847656 204.316406 98.804688 201.542969 100.828125 198.816406 C 102.847656 196.089844 104.9375 193.414062 107.089844 190.789062 C 109.246094 188.164062 111.460938 185.59375 113.742188 183.078125 C 116.023438 180.5625 118.363281 178.105469 120.761719 175.703125 C 123.164062 173.300781 125.621094 170.960938 128.136719 168.679688 C 130.652344 166.402344 133.222656 164.183594 135.847656 162.03125 C 138.472656 159.875 141.148438 157.789062 143.875 155.765625 C 146.601562 153.742188 149.378906 151.789062 152.199219 149.902344 C 155.023438 148.015625 157.890625 146.199219 160.804688 144.453125 C 163.714844 142.710938 166.667969 141.035156 169.664062 139.4375 C 172.65625 137.835938 175.691406 136.308594 178.757812 134.859375 C 181.828125 133.40625 184.929688 132.03125 188.066406 130.730469 C 191.203125 129.433594 194.371094 128.210938 197.566406 127.066406 C 200.765625 125.921875 203.988281 124.859375 207.238281 123.871094 C 210.484375 122.886719 213.757812 121.980469 217.050781 121.15625 C 220.34375 120.332031 223.65625 119.589844 226.984375 118.925781 C 230.316406 118.261719 233.660156 117.683594 237.019531 117.183594 C 240.375 116.6875 243.746094 116.269531 247.125 115.9375 C 250.503906 115.605469 253.886719 115.355469 257.28125 115.1875 C 260.671875 115.023438 264.0625 114.941406 267.457031 114.941406 C 270.855469 114.941406 274.246094 115.023438 277.636719 115.1875 C 281.03125 115.355469 284.414062 115.605469 287.792969 115.9375 C 291.171875 116.269531 294.539062 116.6875 297.898438 117.183594 C 301.257812 117.683594 304.601562 118.261719 307.933594 118.925781 C 311.261719 119.589844 314.574219 120.332031 317.867188 121.15625 C 321.160156 121.980469 324.433594 122.886719 327.679688 123.871094 C 330.929688 124.859375 334.152344 125.921875 337.347656 127.066406 C 340.546875 128.210938 343.714844 129.433594 346.851562 130.730469 C 349.988281 132.03125 353.089844 133.40625 356.160156 134.859375 C 359.226562 136.308594 362.261719 137.835938 365.253906 139.4375 C 368.25 141.035156 371.203125 142.710938 374.113281 144.453125 C 377.027344 146.199219 379.894531 148.015625 382.714844 149.902344 C 385.539062 151.789062 388.316406 153.742188 391.042969 155.765625 C 393.769531 157.789062 396.445312 159.875 399.070312 162.03125 C 401.695312 164.183594 404.265625 166.402344 406.78125 168.679688 C 409.296875 170.960938 411.753906 173.300781 414.15625 175.703125 C 416.554688 178.105469 418.894531 180.5625 421.175781 183.078125 C 423.457031 185.59375 425.671875 188.164062 427.828125 190.789062 C 429.980469 193.414062 432.070312 196.089844 434.089844 198.816406 C 436.113281 201.542969 438.066406 204.316406 439.953125 207.140625 C 441.839844 209.964844 443.65625 212.832031 445.402344 215.742188 C 447.148438 218.65625 448.820312 221.609375 450.421875 224.601562 C 452.023438 227.597656 453.546875 230.628906 455 233.699219 C 456.449219 236.765625 457.828125 239.871094 459.125 243.007812 C 460.425781 246.144531 461.648438 249.3125 462.789062 252.507812 C 463.933594 255.703125 465 258.925781 465.984375 262.175781 C 466.96875 265.425781 467.875 268.695312 468.699219 271.988281 C 469.523438 275.285156 470.269531 278.59375 470.929688 281.925781 C 471.59375 285.253906 472.175781 288.597656 472.671875 291.957031 C 473.171875 295.316406 473.585938 298.683594 473.917969 302.0625 C 474.25 305.441406 474.5 308.828125 474.667969 312.21875 C 474.835938 315.609375 474.917969 319.003906 474.917969 322.398438 Z M 474.917969 322.398438 " fill-opacity="1" fill-rule="nonzero"/></g><g clip-path="url(#9781f15617)"><path fill="#212121" d="M 332.519531 70.136719 C 389.808594 70.136719 441.667969 93.355469 479.207031 130.894531 C 516.75 168.441406 539.96875 220.300781 539.96875 277.582031 C 539.96875 334.863281 516.75 386.726562 479.207031 424.265625 C 441.667969 461.8125 389.808594 485.03125 332.519531 485.03125 C 275.238281 485.03125 223.378906 461.8125 185.835938 424.265625 C 148.292969 386.726562 125.074219 334.863281 125.074219 277.582031 C 125.074219 220.300781 148.292969 168.441406 185.835938 130.894531 C 223.378906 93.355469 275.238281 70.136719 332.519531 70.136719 Z M 462.910156 147.195312 C 429.546875 113.824219 383.441406 93.183594 332.519531 93.183594 C 281.605469 93.183594 235.5 113.824219 202.136719 147.195312 C 168.765625 180.5625 148.125 226.660156 148.125 277.582031 C 148.125 328.503906 168.765625 374.605469 202.136719 407.972656 C 235.5 441.34375 281.605469 461.984375 332.519531 461.984375 C 383.441406 461.984375 429.546875 441.34375 462.910156 407.972656 C 496.28125 374.605469 516.921875 328.503906 516.921875 277.582031 C 516.921875 226.660156 496.28125 180.5625 462.910156 147.195312 " fill-opacity="1" fill-rule="nonzero"/></g></svg>