<?xml version="1.0" encoding="UTF-8"?>
<!DOCTYPE svg PUBLIC "-//W3C//DTD SVG 1.1//EN" "http://www.w3.org/Graphics/SVG/1.1/DTD/svg11.dtd">
<svg xmlns="http://www.w3.org/2000/svg" version="1.1" width="800px" height="800px" style="shape-rendering:geometricPrecision; text-rendering:geometricPrecision; image-rendering:optimizeQuality; fill-rule:evenodd; clip-rule:evenodd" xmlns:xlink="http://www.w3.org/1999/xlink">
<g><path style="opacity:0.983" fill="#2a9c8e" d="M 553.5,623.5 C 499.674,646.341 444.007,652.174 386.5,641C 296.655,619.472 231.488,567.305 191,484.5C 150.356,388.015 159.023,296.348 217,209.5C 225.794,197.581 235.294,186.247 245.5,175.5C 304.535,117.084 375.868,89.5836 459.5,93C 559.073,102.017 634.24,149.184 685,234.5C 725.794,312.713 730.461,393.046 699,475.5C 669.793,543.873 621.293,593.206 553.5,623.5 Z M 604.5,553.5 C 644.769,465.795 642.603,379.128 598,293.5C 547.77,209.358 473.603,162.525 375.5,153C 359.487,152.321 343.487,152.488 327.5,153.5C 382.229,124.616 439.895,117.116 500.5,131C 592.617,156.45 652.45,214.95 680,306.5C 701.481,402.037 677.314,483.871 607.5,552C 606.473,552.513 605.473,553.013 604.5,553.5 Z"/></g>
<g><path style="opacity:0.998" fill="#2c2e35" d="M 604.5,553.5 C 578.555,577.823 548.221,594.989 513.5,605C 443.038,624.809 376.372,616.142 313.5,579C 245.104,534.428 206.604,471.261 198,389.5C 193.279,303.805 223.445,233.305 288.5,178C 300.545,168.311 313.545,160.144 327.5,153.5C 343.487,152.488 359.487,152.321 375.5,153C 473.603,162.525 547.77,209.358 598,293.5C 642.603,379.128 644.769,465.795 604.5,553.5 Z"/></g>
<g><path style="opacity:0.99" fill="#2c2e35" d="M 245.5,175.5 C 235.294,186.247 225.794,197.581 217,209.5C 159.023,296.348 150.356,388.015 191,484.5C 231.488,567.305 296.655,619.472 386.5,641C 444.007,652.174 499.674,646.341 553.5,623.5C 491.007,685.173 415.674,712.34 327.5,705C 221.615,690.506 146.115,635.006 101,538.5C 77.2471,479.933 72.9137,419.933 88,358.5C 112.458,273.219 164.958,212.219 245.5,175.5 Z"/></g>
</svg>
